{
  "accessors": [
    {
      "name": "Path 0_0_positions",
      "componentType": 5126,
      "count": 168,
      "min": [
        -965.91796875,
        -415.473876953125,
        -20.886249542236328
      ],
      "max": [
        -954.1198120117188,
        -348.01593017578125,
        20.886249542236328
      ],
      "type": "VEC3",
      "bufferView": 0,
      "byteOffset": 0
    },
    {
      "name": "Path 0_0_normals",
      "componentType": 5126,
      "count": 168,
      "min": [
        -0.9999993443489075,
        -0.8979208469390869,
        -1
      ],
      "max": [
        0.9999998211860657,
        0.9999945759773254,
        1
      ],
      "type": "VEC3",
      "bufferView": 1,
      "byteOffset": 0
    },
    {
      "name": "Path 0_0_texcoords",
      "componentType": 5126,
      "count": 168,
      "min": [
        0.00009300000237999484,
        0.00009300000237999484
      ],
      "max": [
        0.40890800952911377,
        0.17609499394893646
      ],
      "type": "VEC2",
      "bufferView": 2,
      "byteOffset": 0
    },
    {
      "name": "Path 0_0_indices",
      "componentType": 5123,
      "count": 168,
      "min": [
        0
      ],
      "max": [
        167
      ],
      "type": "SCALAR",
      "bufferView": 3,
      "byteOffset": 0
    },
    {
      "name": "Path 1_0_positions",
      "componentType": 5126,
      "count": 96,
      "min": [
        -1034.1053466796875,
        -390.23699951171875,
        -20.886249542236328
      ],
      "max": [
        -977.6771240234375,
        -347.7735595703125,
        20.886249542236328
      ],
      "type": "VEC3",
      "bufferView": 0,
      "byteOffset": 2016
    },
    {
      "name": "Path 1_0_normals",
      "componentType": 5126,
      "count": 96,
      "min": [
        -0.35298413038253784,
        -0.9362517595291138,
        -1
      ],
      "max": [
        1,
        0.9356293082237244,
        1
      ],
      "type": "VEC3",
      "bufferView": 1,
      "byteOffset": 2016
    },
    {
      "name": "Path 1_0_texcoords",
      "componentType": 5126,
      "count": 96,
      "min": [
        0.00009300000237999484,
        0
      ],
      "max": [
        0.5862699747085571,
        0.11045199632644653
      ],
      "type": "VEC2",
      "bufferView": 2,
      "byteOffset": 1344
    },
    {
      "name": "Path 1_0_indices",
      "componentType": 5123,
      "count": 96,
      "min": [
        0
      ],
      "max": [
        95
      ],
      "type": "SCALAR",
      "bufferView": 3,
      "byteOffset": 336
    },
    {
      "name": "Path 2_0_positions",
      "componentType": 5126,
      "count": 492,
      "min": [
        -996.3616333007812,
        -732.2264404296875,
        -20.886249542236328
      ],
      "max": [
        -923.7137451171875,
        -426.1650390625,
        20.886249542236328
      ],
      "type": "VEC3",
      "bufferView": 0,
      "byteOffset": 3168
    },
    {
      "name": "Path 2_0_normals",
      "componentType": 5126,
      "count": 492,
      "min": [
        -0.9999996423721313,
        -0.9108864068984985,
        -1
      ],
      "max": [
        0.9999998211860657,
        0.9191451072692871,
        1
      ],
      "type": "VEC3",
      "bufferView": 1,
      "byteOffset": 3168
    },
    {
      "name": "Path 2_0_texcoords",
      "componentType": 5126,
      "count": 492,
      "min": [
        0.00009300000237999484,
        0.00009300000237999484
      ],
      "max": [
        0.4880949854850769,
        1
      ],
      "type": "VEC2",
      "bufferView": 2,
      "byteOffset": 2112
    },
    {
      "name": "Path 2_0_indices",
      "componentType": 5123,
      "count": 492,
      "min": [
        0
      ],
      "max": [
        491
      ],
      "type": "SCALAR",
      "bufferView": 3,
      "byteOffset": 528
    },
    {
      "name": "Path 3_0_positions",
      "componentType": 5126,
      "count": 276,
      "min": [
        -903.261474609375,
        -706.9921875,
        -20.886249542236328
      ],
      "max": [
        -852.0635986328125,
        -488.20294189453125,
        20.886249542236328
      ],
      "type": "VEC3",
      "bufferView": 0,
      "byteOffset": 9072
    },
    {
      "name": "Path 3_0_normals",
      "componentType": 5126,
      "count": 276,
      "min": [
        -1,
        -0.9136444330215454,
        -1
      ],
      "max": [
        1,
        0.9146348834037781,
        1
      ],
      "type": "VEC3",
      "bufferView": 1,
      "byteOffset": 9072
    },
    {
      "name": "Path 3_0_texcoords",
      "componentType": 5126,
      "count": 276,
      "min": [
        0.00009300000237999484,
        0.00009300000237999484
      ],
      "max": [
        0.24593199789524078,
        0.9343630075454712
      ],
      "type": "VEC2",
      "bufferView": 2,
      "byteOffset": 6048
    },
    {
      "name": "Path 3_0_indices",
      "componentType": 5123,
      "count": 276,
      "min": [
        0
      ],
      "max": [
        275
      ],
      "type": "SCALAR",
      "bufferView": 3,
      "byteOffset": 1512
    },
    {
      "name": "Path 4_0_positions",
      "componentType": 5126,
      "count": 276,
      "min": [
        -1067.8988037109375,
        -706.8794555664062,
        -20.886249542236328
      ],
      "max": [
        -1016.7008056640625,
        -488.2403869628906,
        20.886249542236328
      ],
      "type": "VEC3",
      "bufferView": 0,
      "byteOffset": 12384
    },
    {
      "name": "Path 4_0_normals",
      "componentType": 5126,
      "count": 276,
      "min": [
        -1,
        -0.9132542610168457,
        -1
      ],
      "max": [
        0.9999999403953552,
        0.9169348478317261,
        1
      ],
      "type": "VEC3",
      "bufferView": 1,
      "byteOffset": 12384
    },
    {
      "name": "Path 4_0_texcoords",
      "componentType": 5126,
      "count": 276,
      "min": [
        0.00009300000237999484,
        0.00009300000237999484
      ],
      "max": [
        0.6741700172424316,
        0.9340699911117554
      ],
      "type": "VEC2",
      "bufferView": 2,
      "byteOffset": 8256
    },
    {
      "name": "Path 4_0_indices",
      "componentType": 5123,
      "count": 276,
      "min": [
        0
      ],
      "max": [
        275
      ],
      "type": "SCALAR",
      "bufferView": 3,
      "byteOffset": 2064
    },
    {
      "name": "Path 5_0_positions",
      "componentType": 5126,
      "count": 276,
      "min": [
        -1111.287841796875,
        -678.8059692382812,
        -20.886249542236328
      ],
      "max": [
        -1079.996826171875,
        -479.3943786621094,
        20.886249542236328
      ],
      "type": "VEC3",
      "bufferView": 0,
      "byteOffset": 15696
    },
    {
      "name": "Path 5_0_normals",
      "componentType": 5126,
      "count": 276,
      "min": [
        -1,
        -0.9140852093696594,
        -1
      ],
      "max": [
        1,
        0.9144070148468018,
        1
      ],
      "type": "VEC3",
      "bufferView": 1,
      "byteOffset": 15696
    },
    {
      "name": "Path 5_0_texcoords",
      "componentType": 5126,
      "count": 276,
      "min": [
        0.00009300000237999484,
        0.00009300000237999484
      ],
      "max": [
        0.7870290279388428,
        0.8610479831695557
      ],
      "type": "VEC2",
      "bufferView": 2,
      "byteOffset": 10464
    },
    {
      "name": "Path 5_0_indices",
      "componentType": 5123,
      "count": 276,
      "min": [
        0
      ],
      "max": [
        275
      ],
      "type": "SCALAR",
      "bufferView": 3,
      "byteOffset": 2616
    },
    {
      "name": "Path 6_0_positions",
      "componentType": 5126,
      "count": 276,
      "min": [
        -839.9278564453125,
        -678.7691650390625,
        -20.886249542236328
      ],
      "max": [
        -808.7122192382812,
        -479.4706115722656,
        20.886249542236328
      ],
      "type": "VEC3",
      "bufferView": 0,
      "byteOffset": 19008
    },
    {
      "name": "Path 6_0_normals",
      "componentType": 5126,
      "count": 276,
      "min": [
        -1,
        -0.9125231504440308,
        -1
      ],
      "max": [
        0.9999998807907104,
        0.9178255796432495,
        1
      ],
      "type": "VEC3",
      "bufferView": 1,
      "byteOffset": 19008
    },
    {
      "name": "Path 6_0_texcoords",
      "componentType": 5126,
      "count": 276,
      "min": [
        0,
        0.00009300000237999484
      ],
      "max": [
        0.10865399986505508,
        0.8609520196914673
      ],
      "type": "VEC2",
      "bufferView": 2,
      "byteOffset": 12672
    },
    {
      "name": "Path 6_0_indices",
      "componentType": 5123,
      "count": 276,
      "min": [
        0
      ],
      "max": [
        275
      ],
      "type": "SCALAR",
      "bufferView": 3,
      "byteOffset": 3168
    },
    {
      "name": "Path 0_1_0_positions",
      "componentType": 5126,
      "count": 5748,
      "min": [
        -1192.6494140625,
        -772.6494140625,
        -8.793749809265137
      ],
      "max": [
        -727.3505859375,
        -307.3505859375,
        8.793749809265137
      ],
      "type": "VEC3",
      "bufferView": 0,
      "byteOffset": 22320
    },
    {
      "name": "Path 0_1_0_normals",
      "componentType": 5126,
      "count": 5748,
      "min": [
        -1,
        -1,
        -1
      ],
      "max": [
        1,
        1,
        1
      ],
      "type": "VEC3",
      "bufferView": 1,
      "byteOffset": 22320
    },
    {
      "name": "Path 0_1_0_texcoords",
      "componentType": 5126,
      "count": 5748,
      "min": [
        0,
        0
      ],
      "max": [
        1,
        1
      ],
      "type": "VEC2",
      "bufferView": 2,
      "byteOffset": 14880
    },
    {
      "name": "Path 0_1_0_indices",
      "componentType": 5123,
      "count": 5748,
      "min": [
        0
      ],
      "max": [
        5747
      ],
      "type": "SCALAR",
      "bufferView": 3,
      "byteOffset": 3720
    },
    {
      "name": "Path 0_2_0_positions",
      "componentType": 5126,
      "count": 11520,
      "min": [
        -1207.8699951171875,
        -787.8699951171875,
        -27.352497100830078
      ],
      "max": [
        -712.1300048828125,
        -292.1300048828125,
        27.352497100830078
      ],
      "type": "VEC3",
      "bufferView": 0,
      "byteOffset": 91296
    },
    {
      "name": "Path 0_2_0_normals",
      "componentType": 5126,
      "count": 11520,
      "min": [
        -1,
        -1,
        -1
      ],
      "max": [
        1,
        1,
        1
      ],
      "type": "VEC3",
      "bufferView": 1,
      "byteOffset": 91296
    },
    {
      "name": "Path 0_2_0_texcoords",
      "componentType": 5126,
      "count": 11520,
      "min": [
        0,
        0
      ],
      "max": [
        1,
        1
      ],
      "type": "VEC2",
      "bufferView": 2,
      "byteOffset": 60864
    },
    {
      "name": "Path 0_2_0_indices",
      "componentType": 5123,
      "count": 11520,
      "min": [
        0
      ],
      "max": [
        11519
      ],
      "type": "SCALAR",
      "bufferView": 3,
      "byteOffset": 15216
    }
  ],
  "asset": {
    "generator": "obj2gltf",
    "version": "2.0"
  },
  "buffers": [
    {
      "name": "FortressBotLogo",
      "byteLength": 650352,
      "uri": "data:application/octet-stream;base64,"
    }
  ],
  "bufferViews": [
    {
      "name": "bufferView_0",
      "buffer": 0,
      "byteLength": 229536,
      "byteOffset": 0,
      "byteStride": 12,
      "target": 34962
    },
    {
      "name": "bufferView_1",
      "buffer": 0,
      "byteLength": 229536,
      "byteOffset": 229536,
      "byteStride": 12,
      "target": 34962
    },
    {
      "name": "bufferView_2",
      "buffer": 0,
      "byteLength": 153024,
      "byteOffset": 459072,
      "byteStride": 8,
      "target": 34962
    },
    {
      "name": "bufferView_3",
      "buffer": 0,
      "byteLength": 38256,
      "byteOffset": 612096,
      "target": 34963
    }
  ],
  "materials": [
    {
      "name": "castle_mat",
      "pbrMetallicRoughness": {
        "baseColorFactor": [
          1,
          1,
          1,
          1
        ],
        "metallicFactor": 0,
        "roughnessFactor": 0.999
      },
      "emissiveFactor": [
        0,
        0,
        0
      ],
      "alphaMode": "OPAQUE",
      "doubleSided": false
    },
    {
      "name": "body_mat",
      "pbrMetallicRoughness": {
        "baseColorFactor": [
          0.203922,
          0.203922,
          0.215686,
          1
        ],
        "metallicFactor": 0,
        "roughnessFactor": 0.999
      },
      "emissiveFactor": [
        0,
        0,
        0
      ],
      "alphaMode": "OPAQUE",
      "doubleSided": false
    },
    {
      "name": "ring_mat",
      "pbrMetallicRoughness": {
        "baseColorFactor": [
          1,
          1,
          1,
          1
        ],
        "metallicFactor": 0,
        "roughnessFactor": 0.999
      },
      "emissiveFactor": [
        0,
        0,
        0
      ],
      "alphaMode": "OPAQUE",
      "doubleSided": false
    }
  ],
  "meshes": [
    {
      "name": "Path 0",
      "primitives": [
        {
          "attributes": {
            "POSITION": 0,
            "NORMAL": 1,
            "TEXCOORD_0": 2
          },
          "indices": 3,
          "material": 0,
          "mode": 4
        }
      ]
    },
    {
      "name": "Path 1",
      "primitives": [
        {
          "attributes": {
            "POSITION": 4,
            "NORMAL": 5,
            "TEXCOORD_0": 6
          },
          "indices": 7,
          "material": 0,
          "mode": 4
        }
      ]
    },
    {
      "name": "Path 2",
      "primitives": [
        {
          "attributes": {
            "POSITION": 8,
            "NORMAL": 9,
            "TEXCOORD_0": 10
          },
          "indices": 11,
          "material": 0,
          "mode": 4
        }
      ]
    },
    {
      "name": "Path 3",
      "primitives": [
        {
          "attributes": {
            "POSITION": 12,
            "NORMAL": 13,
            "TEXCOORD_0": 14
          },
          "indices": 15,
          "material": 0,
          "mode": 4
        }
      ]
    },
    {
      "name": "Path 4",
      "primitives": [
        {
          "attributes": {
            "POSITION": 16,
            "NORMAL": 17,
            "TEXCOORD_0": 18
          },
          "indices": 19,
          "material": 0,
          "mode": 4
        }
      ]
    },
    {
      "name": "Path 5",
      "primitives": [
        {
          "attributes": {
            "POSITION": 20,
            "NORMAL": 21,
            "TEXCOORD_0": 22
          },
          "indices": 23,
          "material": 0,
          "mode": 4
        }
      ]
    },
    {
      "name": "Path 6",
      "primitives": [
        {
          "attributes": {
            "POSITION": 24,
            "NORMAL": 25,
            "TEXCOORD_0": 26
          },
          "indices": 27,
          "material": 0,
          "mode": 4
        }
      ]
    },
    {
      "name": "Path 0_1",
      "primitives": [
        {
          "attributes": {
            "POSITION": 28,
            "NORMAL": 29,
            "TEXCOORD_0": 30
          },
          "indices": 31,
          "material": 1,
          "mode": 4
        }
      ]
    },
    {
      "name": "Path 0_2",
      "primitives": [
        {
          "attributes": {
            "POSITION": 32,
            "NORMAL": 33,
            "TEXCOORD_0": 34
          },
          "indices": 35,
          "material": 2,
          "mode": 4
        }
      ]
    }
  ],
  "nodes": [
    {
      "name": "castle",
      "children": [
        1,
        2,
        3,
        4,
        5,
        6,
        7
      ]
    },
    {
      "name": "Path 0",
      "mesh": 0
    },
    {
      "name": "Path 1",
      "mesh": 1
    },
    {
      "name": "Path 2",
      "mesh": 2
    },
    {
      "name": "Path 3",
      "mesh": 3
    },
    {
      "name": "Path 4",
      "mesh": 4
    },
    {
      "name": "Path 5",
      "mesh": 5
    },
    {
      "name": "Path 6",
      "mesh": 6
    },
    {
      "name": "body",
      "mesh": 7
    },
    {
      "name": "ring",
      "mesh": 8
    }
  ],
  "scene": 0,
  "scenes": [
    {
      "nodes": [
        0,
        8,
        9
      ]
    }
  ]
}
